<svg width="56" height="51" viewBox="0 0 56 51" fill="none" xmlns="http://www.w3.org/2000/svg">
<path d="M49.166 35.8742H42.0826L47.0927 40.8813C47.6426 41.4317 47.9515 42.1779 47.9515 42.9555C47.9515 43.7334 47.6426 44.4792 47.0927 45.0296L46.6814 45.4405C46.1311 45.9901 45.3846 46.2992 44.6064 46.2992C43.8279 46.2992 43.0817 45.9901 42.531 45.4405L37.5278 40.4335V47.513C37.5278 48.2914 37.2181 49.038 36.6677 49.588C36.117 50.1384 35.37 50.4476 34.5914 50.4476H34.0121C33.2336 50.4476 32.4866 50.1384 31.9363 49.588C31.3855 49.038 31.0762 48.2914 31.0762 47.513V17.7904C31.0795 17.0153 31.3894 16.273 31.9384 15.7255C32.4874 15.178 33.2306 14.8698 34.0061 14.8682H34.585C35.3627 14.8665 36.1093 15.1733 36.6609 15.7211C37.2125 16.2689 37.5244 17.0131 37.5278 17.7904V24.8702L42.5374 19.8629C43.0877 19.3132 43.8343 19.0043 44.6124 19.0043C45.391 19.0043 46.1371 19.3132 46.6878 19.8629L47.0987 20.2737C47.649 20.824 47.9578 21.57 47.9578 22.3479C47.9578 23.1257 47.649 23.8718 47.0987 24.422L42.0826 29.4293H49.166C49.9441 29.4293 50.6903 29.738 51.2402 30.288C51.79 30.8375 52.0993 31.5833 52.0993 32.3609V32.9426C52.0993 33.7202 51.79 34.466 51.2402 35.0155C50.6903 35.5655 49.9441 35.8742 49.166 35.8742Z" fill="#156FFF"/>
<path d="M6.52596 29.4293H13.6094L8.5996 24.422C8.04958 23.8717 7.74059 23.1257 7.74059 22.3479C7.74059 21.57 8.04958 20.824 8.5996 20.2737L9.01059 19.8629C9.56117 19.3132 10.3076 19.0043 11.0858 19.0043C11.8641 19.0043 12.6105 19.3132 13.161 19.8629L18.1708 24.8701V17.7903C18.1741 17.0147 18.4845 16.272 19.0341 15.7244C19.5837 15.1768 20.3278 14.869 21.1038 14.8682H21.6861C22.0715 14.8682 22.4531 14.9441 22.8092 15.0916C23.1653 15.2391 23.4887 15.4553 23.7611 15.7279C24.0335 16.0004 24.2495 16.324 24.3967 16.68C24.5439 17.036 24.6195 17.4175 24.6191 17.8028V47.513C24.6195 47.8981 24.5439 48.2798 24.3967 48.6357C24.2495 48.9921 24.0335 49.3154 23.7611 49.588C23.4887 49.8607 23.1653 50.0766 22.8092 50.2243C22.4531 50.3716 22.0715 50.4476 21.6861 50.4476H21.1038C20.3257 50.4467 19.5797 50.1372 19.0297 49.5872C18.4797 49.0367 18.1708 48.291 18.1708 47.513V40.4335L13.161 45.4405C12.6105 45.9901 11.8641 46.2992 11.0858 46.2992C10.3076 46.2992 9.56117 45.9901 9.01059 45.4405L8.5996 45.0296C8.04958 44.4792 7.74059 43.7334 7.74059 42.9555C7.74059 42.1779 8.04958 41.4317 8.5996 40.8813L13.6094 35.8742H6.52596C6.14052 35.8747 5.75879 35.7991 5.40258 35.6518C5.04636 35.505 4.72269 35.289 4.45001 35.0168C4.17732 34.7446 3.96099 34.4213 3.81338 34.0654C3.66578 33.7094 3.58984 33.3278 3.58984 32.9426V32.3609C3.59065 31.5829 3.90037 30.8371 4.4509 30.2875C5.00144 29.738 5.74779 29.4293 6.52596 29.4293Z" fill="#156FFF"/>
<path d="M52.1033 18.083C51.649 18.083 51.1998 17.9836 50.7877 17.7917C50.3756 17.5998 50.0108 17.32 49.7186 16.972C47.0387 13.7795 43.692 11.2124 39.9135 9.451C36.1351 7.68969 32.0162 6.77698 27.847 6.77698C23.6777 6.77698 19.559 7.68969 15.7804 9.451C12.0019 11.2124 8.65514 13.7795 5.9755 16.972C5.71259 17.2851 5.39054 17.5433 5.0278 17.7319C4.66506 17.9206 4.26865 18.036 3.86129 18.0715C3.45392 18.1071 3.04353 18.062 2.65352 17.9391C2.26356 17.8161 1.90163 17.6175 1.58842 17.3548C1.27525 17.092 1.0169 16.7701 0.828122 16.4076C0.639392 16.045 0.52391 15.6488 0.488373 15.2417C0.416533 14.4193 0.674501 13.6022 1.20545 12.97C4.46988 9.0818 8.54665 5.95534 13.1493 3.81031C17.7519 1.66529 22.7686 0.553711 27.847 0.553711C32.9253 0.553711 37.9422 1.66529 42.5448 3.81031C47.1475 5.95534 51.2241 9.0818 54.4885 12.97C54.8699 13.4238 55.1135 13.9768 55.1907 14.5642C55.2683 15.1517 55.1762 15.749 54.9258 16.286C54.6753 16.823 54.2769 17.2773 53.7769 17.5957C53.2769 17.914 52.6963 18.0831 52.1033 18.083Z" fill="#156FFF"/>
</svg>
