<svg width="455" height="128" viewBox="0 0 455 128" fill="none" xmlns="http://www.w3.org/2000/svg">
<mask id="mask0_6_60" style="mask-type:luminance" maskUnits="userSpaceOnUse" x="18" y="23" width="90" height="82">
<path d="M107.987 23.579H18.7148V104.421H107.987V23.579Z" fill="white"/>
</mask>
<g mask="url(#mask0_6_60)">
<path d="M98.1185 80.8083H86.5668L94.7373 88.921C95.6341 89.8128 96.1378 91.0219 96.1378 92.2817C96.1378 93.5422 95.6341 94.7506 94.7373 95.6424L94.0666 96.3082C93.1692 97.1986 91.9517 97.6995 90.6827 97.6995C89.413 97.6995 88.1962 97.1986 87.298 96.3082L79.1386 88.1955V99.6661C79.1386 100.927 78.6335 102.137 77.736 103.028C76.8379 103.92 75.6197 104.421 74.35 104.421H73.4052C72.1355 104.421 70.9173 103.92 70.0198 103.028C69.1217 102.137 68.6172 100.927 68.6172 99.6661V51.5079C68.6225 50.252 69.128 49.0493 70.0233 48.1623C70.9187 47.2753 72.1306 46.7758 73.3955 46.7732H74.3395C75.6078 46.7706 76.8253 47.2675 77.7249 48.1552C78.6245 49.0428 79.133 50.2485 79.1386 51.5079V62.979L87.3084 54.866C88.2059 53.9752 89.4234 53.4748 90.6924 53.4748C91.9621 53.4748 93.1789 53.9752 94.0771 54.866L94.7471 55.5315C95.6445 56.4231 96.1482 57.6319 96.1482 58.8922C96.1482 60.1525 95.6445 61.3613 94.7471 62.2529L86.5668 70.3659H98.1185C99.3875 70.3659 100.604 70.8661 101.501 71.7572C102.398 72.6476 102.902 73.856 102.902 75.1158V76.0584C102.902 77.3182 102.398 78.5266 101.501 79.417C100.604 80.3082 99.3875 80.8083 98.1185 80.8083Z" fill="#156FFF"/>
<path d="M28.5793 70.3659H40.1311L31.961 62.2528C31.0641 61.3612 30.5601 60.1525 30.5601 58.8922C30.5601 57.6319 31.0641 56.4231 31.961 55.5315L32.6313 54.866C33.5292 53.9752 34.7464 53.4748 36.0156 53.4748C37.2848 53.4748 38.5021 53.9752 39.4 54.866L47.5701 62.9789V51.5079C47.5754 50.2512 48.0815 49.0477 48.9778 48.1605C49.8741 47.2733 51.0877 46.7745 52.3533 46.7732H53.3028C53.9314 46.7732 54.5537 46.8962 55.1345 47.1352C55.7151 47.3742 56.2426 47.7246 56.6868 48.1662C57.1311 48.6078 57.4833 49.1319 57.7234 49.7088C57.9635 50.2857 58.0867 50.9038 58.086 51.528V99.6661C58.0867 100.29 57.9635 100.908 57.7234 101.485C57.4833 102.063 57.1311 102.586 56.6868 103.028C56.2426 103.47 55.7151 103.82 55.1345 104.059C54.5537 104.298 53.9314 104.421 53.3028 104.421H52.3533C51.0842 104.419 49.8676 103.918 48.9707 103.027C48.0738 102.135 47.5701 100.927 47.5701 99.6661V88.1954L39.4 96.3081C38.5021 97.1986 37.2848 97.6994 36.0156 97.6994C34.7464 97.6994 33.5292 97.1986 32.6313 96.3081L31.961 95.6424C31.0641 94.7506 30.5601 93.5422 30.5601 92.2817C30.5601 91.0219 31.0641 89.8128 31.961 88.921L40.1311 80.8083H28.5793C27.9507 80.809 27.3282 80.6866 26.7473 80.448C26.1663 80.2101 25.6385 79.8601 25.1938 79.4191C24.7491 78.9781 24.3963 78.4542 24.1556 77.8775C23.9149 77.3008 23.791 76.6824 23.791 76.0584V75.1158C23.7923 73.8553 24.2974 72.6469 25.1953 71.7565C26.0931 70.8661 27.3102 70.3659 28.5793 70.3659Z" fill="#156FFF"/>
<path d="M102.909 51.9817C102.168 51.9818 101.436 51.8207 100.763 51.5097C100.091 51.1988 99.4965 50.7454 99.02 50.1816C94.6495 45.0089 89.1916 40.8495 83.0296 37.9957C76.8676 35.1419 70.1504 33.6631 63.3512 33.6631C56.5518 33.6631 49.835 35.1419 43.6728 37.9957C37.5106 40.8495 32.0527 45.0089 27.6826 50.1816C27.2539 50.6888 26.7287 51.1072 26.1371 51.4129C25.5455 51.7185 24.8991 51.9055 24.2347 51.9631C23.5704 52.0207 22.9011 51.9478 22.2651 51.7485C21.6291 51.5493 21.0389 51.2276 20.5281 50.8018C20.0174 50.3761 19.596 49.8545 19.2882 49.2671C18.9804 48.6797 18.7921 48.0377 18.7341 47.378C18.6169 46.0456 19.0376 44.7217 19.9035 43.6973C25.2272 37.3975 31.8757 32.3318 39.3818 28.8564C46.8878 25.3809 55.0693 23.5798 63.3512 23.5798C71.633 23.5798 79.8147 25.3809 87.3208 28.8564C94.8269 32.3318 101.475 37.3975 106.799 43.6973C107.421 44.4326 107.818 45.3287 107.944 46.2804C108.071 47.2322 107.92 48.2 107.512 49.0701C107.104 49.9402 106.454 50.6763 105.638 51.1921C104.823 51.7079 103.876 51.9818 102.909 51.9817Z" fill="#156FFF"/>
</g>
<mask id="mask1_6_60" style="mask-type:luminance" maskUnits="userSpaceOnUse" x="129" y="37" width="326" height="54">
<path d="M454.815 37.0526H129.883V90.9474H454.815V37.0526Z" fill="white"/>
</mask>
<g mask="url(#mask1_6_60)">
<path d="M379.981 85.8211H377.51L379.251 87.5839C379.347 87.6799 379.424 87.7933 379.476 87.9185C379.528 88.0437 379.555 88.178 379.555 88.3143C379.555 88.45 379.528 88.5843 379.476 88.7095C379.424 88.8347 379.347 88.9481 379.251 89.0441L379.105 89.1902C379.009 89.2862 378.895 89.3627 378.77 89.4149C378.645 89.467 378.51 89.4942 378.375 89.4942C378.239 89.4942 378.105 89.467 377.979 89.4149C377.854 89.3627 377.74 89.2862 377.645 89.1902L375.881 87.4267V89.9199C375.881 90.194 375.773 90.4563 375.579 90.6503C375.385 90.8437 375.122 90.9529 374.848 90.9529H374.646C374.372 90.9529 374.109 90.8437 373.916 90.6503C373.722 90.4563 373.613 90.194 373.613 89.9199V79.4538C373.613 79.1804 373.722 78.9175 373.916 78.7234C374.109 78.53 374.372 78.4208 374.646 78.4208H374.848C375.122 78.4208 375.385 78.53 375.579 78.7234C375.773 78.9175 375.881 79.1804 375.881 79.4538V81.9693L377.645 80.2065C377.74 80.1098 377.854 80.0333 377.979 79.9811C378.105 79.9289 378.239 79.9025 378.375 79.9025C378.51 79.9025 378.645 79.9289 378.77 79.9811C378.895 80.0333 379.009 80.1098 379.105 80.2065L379.251 80.3526C379.347 80.4479 379.424 80.562 379.476 80.6872C379.528 80.8124 379.555 80.9467 379.555 81.0823C379.555 81.218 379.528 81.3523 379.476 81.4775C379.424 81.6034 379.347 81.7168 379.251 81.8121L377.51 83.547H380.003C380.277 83.5484 380.538 83.6583 380.732 83.8517C380.925 84.0451 381.035 84.3067 381.037 84.5801V84.7769C381.037 84.9154 381.01 85.0524 380.957 85.1797C380.904 85.3077 380.826 85.4239 380.728 85.5213C380.63 85.618 380.513 85.6952 380.385 85.7467C380.256 85.7982 380.119 85.8232 379.981 85.8211Z" fill="#FF5715"/>
<path d="M369.51 83.547H372.003L370.24 81.7898C370.144 81.6945 370.067 81.5804 370.014 81.4552C369.962 81.33 369.936 81.1957 369.936 81.0601C369.936 80.9244 369.962 80.7895 370.014 80.6643C370.067 80.539 370.144 80.4256 370.24 80.3303L370.38 80.1843C370.475 80.0876 370.59 80.011 370.715 79.9589C370.84 79.9067 370.974 79.8796 371.11 79.8796C371.246 79.8796 371.38 79.9067 371.506 79.9589C371.631 80.011 371.744 80.0876 371.84 80.1843L373.58 81.9693V79.4538C373.58 79.1804 373.69 78.9175 373.883 78.7234C374.077 78.53 374.34 78.4208 374.614 78.4208H374.822C374.957 78.4208 375.091 78.4479 375.216 78.5001C375.341 78.5516 375.455 78.6281 375.55 78.7241C375.646 78.8201 375.721 78.9342 375.773 79.0594C375.824 79.1846 375.85 79.3189 375.849 79.4538V89.9143C375.852 90.1849 375.748 90.4458 375.56 90.6399C375.372 90.8347 375.114 90.9467 374.844 90.9529H374.637C374.498 90.9557 374.361 90.9314 374.233 90.8806C374.104 90.8291 373.987 90.7533 373.889 90.6566C373.79 90.5599 373.713 90.4437 373.66 90.3164C373.607 90.1891 373.58 90.0521 373.58 89.9143V87.4211L371.817 89.1846C371.722 89.2806 371.608 89.3571 371.483 89.4093C371.358 89.4615 371.223 89.4886 371.088 89.4886C370.952 89.4886 370.818 89.4615 370.692 89.4093C370.567 89.3571 370.453 89.2806 370.358 89.1846L370.217 89.0385C370.121 88.9425 370.044 88.8291 369.992 88.7039C369.94 88.5787 369.913 88.4444 369.913 88.3081C369.913 88.1724 369.94 88.0382 369.992 87.9129C370.044 87.7877 370.121 87.6743 370.217 87.5783L371.98 85.8211H369.487C369.215 85.8156 368.957 85.7022 368.767 85.5067C368.578 85.3112 368.474 85.0489 368.477 84.7769V84.5689C368.479 84.2969 368.589 84.0375 368.783 83.8455C368.977 83.6542 369.238 83.547 369.51 83.547Z" fill="#FF5715"/>
<path d="M129.883 64.7326V64.5641C129.883 50.3536 140.551 38.6976 155.712 38.6976C163.428 38.6976 168.509 40.9828 172.872 44.3515C173.402 44.7679 173.829 45.3002 174.121 45.9076C174.414 46.515 174.563 47.1812 174.557 47.8551C174.538 48.6601 174.3 49.4446 173.865 50.123C173.432 50.8014 172.82 51.3476 172.097 51.7022C171.374 52.0567 170.568 52.2059 169.766 52.1334C168.963 52.0609 168.197 51.7696 167.549 51.2912C164.112 48.4839 160.395 46.7995 155.606 46.7995C146.094 46.7995 139.08 54.66 139.08 64.4687V64.5641C139.08 74.3616 146.021 82.3004 155.606 82.3004C160.895 82.3004 164.472 80.5828 168.122 77.5115C168.851 76.8646 169.792 76.5077 170.767 76.5063C171.851 76.5161 172.89 76.9467 173.664 77.707C174.438 78.4674 174.887 79.4983 174.916 80.5828C174.913 81.179 174.783 81.7675 174.537 82.3109C174.29 82.8535 173.932 83.3376 173.484 83.7328C168.762 87.8816 163.377 90.4702 155.319 90.4702C140.753 90.4757 129.883 79.106 129.883 64.7326Z" fill="black"/>
<path d="M184.385 41.3421C184.38 40.7775 184.488 40.2178 184.702 39.6953C184.916 39.1728 185.232 38.6982 185.631 38.2989C186.03 37.8998 186.505 37.5839 187.028 37.37C187.55 37.156 188.11 37.0481 188.675 37.0526C189.243 37.0466 189.807 37.1531 190.335 37.3656C190.861 37.5782 191.341 37.8927 191.747 38.2913C192.153 38.6898 192.475 39.1645 192.697 39.6881C192.918 40.2116 193.034 40.7737 193.038 41.3421V85.6973C192.997 86.818 192.523 87.8789 191.717 88.6573C190.91 89.4358 189.832 89.8706 188.711 89.8706C187.59 89.8706 186.512 89.4358 185.705 88.6573C184.898 87.8789 184.425 86.818 184.385 85.6973V41.3421Z" fill="black"/>
<path d="M201.836 78.747V78.6009C201.836 70.4486 208.204 66.4395 217.43 66.4395C220.879 66.4078 224.311 66.9427 227.587 68.0228V67.0907C227.587 61.7288 224.297 58.8653 218.215 58.8653C215.356 58.8273 212.516 59.3381 209.849 60.37C209.408 60.5039 208.951 60.5757 208.49 60.5834C208.015 60.5893 207.544 60.5014 207.103 60.3247C206.663 60.1479 206.261 59.8859 205.922 59.5535C205.583 59.2212 205.312 58.8251 205.127 58.3881C204.942 57.951 204.844 57.4817 204.84 57.0069C204.855 56.2664 205.086 55.5462 205.504 54.9356C205.924 54.3249 206.513 53.8504 207.199 53.5707C211.073 52.0595 215.203 51.3085 219.361 51.3586C225.01 51.3586 229.233 52.8577 231.877 55.5752C234.685 58.2926 235.954 62.3127 235.954 67.2311V85.8267C235.957 86.379 235.851 86.9265 235.639 87.4364C235.427 87.9463 235.115 88.4082 234.721 88.7957C234.327 89.1825 233.86 89.4865 233.346 89.6889C232.832 89.892 232.283 89.9894 231.731 89.9762C229.233 89.9762 227.514 88.258 227.514 86.3261V84.9C224.937 87.9714 221.006 90.3915 215.234 90.3915C208.131 90.3915 201.836 86.3261 201.836 78.747ZM227.728 76.0291V73.458C224.989 72.4381 222.087 71.9282 219.164 71.9533C213.583 71.9533 210.292 74.3108 210.292 78.2468V78.3929C210.292 82.0367 213.51 84.114 217.659 84.114C223.365 84.114 227.728 80.8465 227.728 76.0291Z" fill="black"/>
<path d="M246.176 41.7014C246.176 39.1243 248.321 37.4792 251.111 37.4792C253.902 37.4792 256.047 39.1243 256.047 41.7014V42.1058C256.047 44.6829 253.902 46.4009 251.111 46.4009C248.321 46.4009 246.176 44.6829 246.176 42.1058V41.7014ZM246.821 55.7885C246.81 55.2185 246.912 54.6518 247.122 54.1219C247.333 53.592 247.647 53.1096 248.047 52.703C248.447 52.2964 248.923 51.974 249.45 51.7547C249.976 51.5354 250.541 51.4236 251.111 51.426C251.685 51.4223 252.254 51.5325 252.785 51.7505C253.317 51.9684 253.799 52.2896 254.205 52.6955C254.611 53.1013 254.932 53.5837 255.15 54.1147C255.368 54.6457 255.478 55.2146 255.474 55.7885V85.6862C255.434 86.8069 254.961 87.8678 254.154 88.6462C253.347 89.4246 252.269 89.8594 251.148 89.8594C250.027 89.8594 248.949 89.4246 248.142 88.6462C247.336 87.8678 246.862 86.8069 246.821 85.6862V55.7885Z" fill="black"/>
<path d="M266.78 55.7885C266.768 55.2185 266.871 54.6518 267.081 54.1219C267.292 53.592 267.606 53.1096 268.005 52.703C268.405 52.2964 268.883 51.974 269.409 51.7547C269.935 51.5354 270.5 51.4236 271.071 51.426C271.645 51.4223 272.214 51.5326 272.745 51.7505C273.275 51.9684 273.758 52.2896 274.164 52.6954C274.569 53.1013 274.891 53.5837 275.109 54.1146C275.327 54.6456 275.437 55.2146 275.434 55.7885V57.5796C277.865 54.2108 281.155 51.0723 286.95 51.0723C292.385 51.0723 296.249 53.7167 298.248 57.72C301.252 53.7167 305.261 51.0891 310.983 51.0891C319.209 51.0891 324.212 56.3107 324.212 65.5355V85.6862C324.223 86.2524 324.119 86.8152 323.908 87.3404C323.696 87.8657 323.38 88.3429 322.98 88.7436C322.579 89.1436 322.102 89.4594 321.576 89.6709C321.051 89.883 320.488 89.9867 319.922 89.9763C319.352 89.9881 318.785 89.8858 318.256 89.6751C317.726 89.465 317.243 89.1505 316.836 88.7505C316.43 88.3512 316.107 87.874 315.888 87.3474C315.669 86.8215 315.557 86.2566 315.559 85.6862V68.1632C315.559 62.1555 312.752 58.9384 307.906 58.9384C303.184 58.9384 299.825 62.2285 299.825 68.3035V85.7091C299.825 86.857 299.37 87.9582 298.558 88.77C297.746 89.5818 296.645 90.0375 295.497 90.0375C294.348 90.0375 293.247 89.5818 292.435 88.77C291.623 87.9582 291.167 86.857 291.167 85.7091V68.0901C291.167 62.2285 288.309 58.9384 283.514 58.9384C278.718 58.9384 275.434 62.5148 275.434 68.3035V85.7091C275.393 86.8291 274.919 87.89 274.112 88.6684C273.305 89.4469 272.228 89.8817 271.107 89.8817C269.985 89.8817 268.908 89.4469 268.101 88.6684C267.294 87.89 266.821 86.8291 266.78 85.7091V55.7885Z" fill="black"/>
<path d="M333.296 85.8267C332.774 85.5234 332.345 85.083 332.056 84.5537C331.766 84.0243 331.626 83.426 331.651 82.8229C331.646 82.3617 331.733 81.9032 331.907 81.4761C332.081 81.0483 332.34 80.6601 332.666 80.3338C332.992 80.0076 333.38 79.7495 333.808 79.5756C334.235 79.401 334.693 79.314 335.155 79.3196C335.807 79.3224 336.448 79.4949 337.013 79.819C340.664 82.2503 344.453 83.4684 347.885 83.4684C351.607 83.4684 353.752 81.8963 353.752 79.3926V79.2465C353.752 76.3157 349.748 75.3161 345.33 73.9575C339.748 72.3853 333.538 70.0945 333.538 62.8686V62.7282C333.538 55.5752 339.473 51.2126 346.986 51.2126C351.132 51.275 355.202 52.33 358.857 54.2894C359.477 54.5871 360.001 55.0537 360.369 55.6357C360.736 56.2176 360.932 56.8913 360.934 57.5796C360.936 58.0465 360.845 58.5092 360.665 58.9402C360.486 59.3711 360.221 59.7616 359.887 60.0883C359.554 60.4151 359.158 60.6716 358.723 60.8424C358.288 61.0133 357.824 61.0951 357.358 61.0831C356.745 61.091 356.143 60.9359 355.611 60.6339C352.534 59.0563 349.389 58.0568 346.744 58.0568C343.376 58.0568 341.449 59.6289 341.449 61.7738V61.9197C341.449 64.727 345.526 65.8499 349.962 67.2817C355.471 68.9998 361.692 71.5039 361.692 78.2977V78.4382C361.692 86.377 355.515 90.313 347.654 90.313C342.529 90.2747 337.531 88.7137 333.296 85.8267Z" fill="black"/>
<path d="M387.936 83.8956L406.534 42.4146C407.539 40.1687 409.342 38.838 411.829 38.838H412.256C414.76 38.838 416.478 40.1968 417.478 42.4146L436.075 83.8956C436.398 84.464 436.571 85.1054 436.575 85.7593C436.588 86.3109 436.49 86.8598 436.287 87.3725C436.084 87.8852 435.78 88.352 435.392 88.7457C435.005 89.1387 434.543 89.4504 434.034 89.6619C433.524 89.8727 432.977 89.9798 432.425 89.9763C430.354 89.9763 428.922 88.7631 428.136 86.8994L424.059 77.5339H399.739L395.522 87.1854C395.223 88.0222 394.669 88.7429 393.938 89.2466C393.206 89.7509 392.334 90.0118 391.446 89.993C390.907 90 390.372 89.8984 389.873 89.6953C389.374 89.4914 388.921 89.1902 388.54 88.8083C388.16 88.4271 387.859 87.9728 387.657 87.4734C387.456 86.9739 387.355 86.4389 387.364 85.8998C387.398 85.1965 387.593 84.5106 387.936 83.8956ZM420.695 69.7356L411.902 49.5227L403.103 69.7356H420.695Z" fill="black"/>
<path d="M444.941 41.7014C444.941 39.1243 447.086 37.4792 449.877 37.4792C452.668 37.4792 454.813 39.1243 454.813 41.7014V42.1058C454.813 44.6829 452.668 46.4009 449.877 46.4009C447.086 46.4009 444.941 44.6829 444.941 42.1058V41.7014ZM445.587 55.7885C445.575 55.2185 445.677 54.6518 445.888 54.1219C446.098 53.592 446.413 53.1096 446.812 52.703C447.212 52.2964 447.689 51.974 448.215 51.7547C448.742 51.5354 449.307 51.4236 449.877 51.426C450.451 51.4223 451.02 51.5325 451.551 51.7505C452.082 51.9684 452.564 52.2896 452.971 52.6955C453.376 53.1013 453.698 53.5837 453.915 54.1147C454.133 54.6457 454.244 55.2146 454.24 55.7885V85.6862C454.2 86.8069 453.726 87.8678 452.919 88.6462C452.112 89.4246 451.034 89.8594 449.914 89.8594C448.792 89.8594 447.715 89.4246 446.908 88.6462C446.101 87.8678 445.627 86.8069 445.587 85.6862V55.7885Z" fill="black"/>
</g>
</svg>
